<svg xmlns="http://www.w3.org/2000/svg" xmlns:vectornator="http://vectornator.io"
    xml:space="preserve" stroke-miterlimit="10"
    style="fill-rule:nonzero;clip-rule:evenodd;stroke-linecap:round;stroke-linejoin:round"
    viewBox="0 0 1024 1024"><g vectornator:layerName="Senza Titolo" fill="#884c3a"><path vectornator:layerName="path" d="M989.357 583.902c-5.859 41.183-16.779 80.319-32.907 117.943-44.231 103.181-117.568 179.528-215.711 232.698-49.961 27.067-103.59 42.852-159.729 50.823-32.842 4.664-65.78 6.296-98.812 3.954-64.124-4.545-125.537-19.823-183.499-48.066-48.563-23.664-92.384-54.094-130.708-92.23-51.115-50.864-88.866-110.055-112.166-178.546-16.359-48.089-25.441-97.297-26.718-148.016C26.04 400.574 65.05 293.756 144.21 201.368c51.411-60.001 114.207-104.127 187.459-133.424 38.657-15.461 78.762-25.929 120.061-30.793 37.879-4.46 75.893-4.721 113.991-.637 60.689 6.506 118.1 23.595 171.976 52.007 96.035 50.645 167.442 125.167 214.01 223.325 19.874 41.893 32.494 85.875 39.227 131.789 4.473 30.505 4.583 61.053 3.674 91.628-.477 16.034-1.876 32.172-5.251 48.639M699.298 133.345c-67.683-32.396-138.816-47.097-213.904-42.318-39.971 2.544-78.66 10.674-116.444 23.854-43.491 15.17-83.305 37.139-119.655 65.12-45.293 34.865-81.515 77.839-110.139 127.302-31.369 54.206-48.594 112.737-52.3 175.028-2.4 40.317.596 80.485 10.21 119.88 2.522 10.339 4.282 21.076 9.726 31.239 2.278-1.898 4.088-3.108 5.536-4.656 28.922-30.909 64.364-52.106 102.948-68.337 7.514-3.161 9.819-6.982 9.78-14.956-.341-70.732-.299-141.467-.21-212.2.038-29.641 16.189-52.315 43.152-62.21 41.199-15.12 82.26-30.618 123.437-45.799 7.594-2.8 15.075-6.153 23.678-7.737v76.609c-1.883.978-3.158.868-4.066.034-3.147-2.887-7.069-4.56-9.994-8.077-3.241-3.899-8.601-4.924-13.798-2.933-11.959 4.579-23.888 9.239-37.286 14.431 3.109 1.503 4.347 2.254 5.683 2.725 40.713 14.364 81.385 28.846 122.192 42.937 9.831 3.394 20.241 4.622 30.683 3.157 18.725-2.627 36.305-9.467 54.104-15.361 57.003-18.878 113.958-37.903 170.83-57.168 13.808-4.677 26.267-2.058 37.969 5.26 17.826 11.149 26.322 28.004 26.395 48.643.259 72.182.305 144.366-.129 216.545-.056 9.279 2.828 13.723 11.28 17.083 34.139 13.569 65.179 32.323 92.447 57.157 5.088 4.633 9.067 10.551 15.2 14.215 2.915-3.184 3.532-6.849 4.462-10.253 13.115-48.035 19.044-96.753 15.255-146.635-2.89-38.047-10.627-75.015-24.408-110.412-40.638-104.377-111.33-181.673-212.634-232.167M399.423 411.759c-.005 28.491.059 56.982-.039 85.472-.061 17.494-8.278 29.29-22.629 32.969-14.68 3.763-30.376-2.818-39.28-16.47-8.423-12.913-8.265-32.468.676-43.487 2.042-2.517 2.532-5.031 2.53-7.975-.029-34.77-.113-69.539.03-104.308.02-4.87-1.693-7.585-6.268-9.13-10.507-3.548-20.861-7.555-31.396-11.013-8.265-2.713-16.538 1.399-20.073 9.527-1.858 4.271-2.302 8.776-2.3 13.432.05 105.998.028 211.996.049 317.995.004 16.557 6.62 25.866 22.217 31.782 48.716 18.476 97.374 37.105 146.161 55.392 13.983 5.242 27.765 11.149 42.287 14.85 7.916 2.017 15.602-1.046 18.162-6.806 5.814-13.081-.58-24.48-14.83-26.276-8.894-1.122-17.529-3.301-25.955-6.263-13.444-4.727-20.094-13.9-20.86-28.235-.286-5.345.312-10.586 1.396-15.804 1.895-9.131 8.51-14.797 17.81-14.909 4.353-.052 8.622.589 12.683 2.46 17.91 8.255 36.031 9.088 54.874 2.729 23.301-7.864 46.913-14.802 70.35-22.269 39.06-12.443 78.074-25.034 117.14-37.458 9.372-2.981 15.336-9.206 17.533-18.535 2.218-9.416 2.291-18.893-5.116-26.498-7.066-7.257-15.334-6.168-24.141-3.326-49.124 15.85-98.311 31.504-147.503 47.142-11.493 3.654-23.039 7.16-34.646 10.434-20.907 5.899-39.884-1.893-59.028-8.585-12.478-4.362-19.45-13.144-21.002-26.009-1.04-8.627-1.007-17.365 1.385-25.863 2.661-9.452 11.689-14.955 21.221-12.802 4.216.953 8.427 2.191 12.414 3.844 11.723 4.861 23.757 6.246 36.114 3.463 6.57-1.479 13.039-3.466 19.471-5.488 45.082-14.17 90.157-28.364 135.203-42.649 16.777-5.32 33.678-10.35 50.14-16.531 14.592-5.478 20.594-21.693 14.886-36.903-4.617-12.299-14.115-15.311-30.717-10.037-53.562 17.014-107.409 33.187-160.62 51.234-27.244 9.24-53.107 9.714-79.525-1.414-13.905-5.856-20.208-14.218-20.384-29.244-.036-3.138-.115-6.285.054-9.415.857-15.855 9.102-29.262 29.533-21.964 19.078 6.816 37.304 4.145 55.863-1.836 61.738-19.899 123.553-39.562 185.386-59.165 17.561-5.567 23.859-14.682 21.781-32.778-1.661-14.456-12.339-21.549-26.205-17.127-58.832 18.761-117.815 37.074-176.37 56.668-26.053 8.717-50.956 10.411-76.783-.273-17.342-7.173-35.448-12.512-53.268-18.506-7.369-2.478-8.304-1.704-8.391 6.26-.104 9.415-.022 18.833-.02 29.698M808.66 811.218c8.115-7.567 16.558-14.815 24.283-22.761 22.356-22.996 40.066-49.391 55.879-77.186 7.375-12.963 6.206-24.847-2.755-36.275-20.811-26.542-48.625-43.636-78.533-57.826-8.082-3.834-9.519-2.862-9.556 6.317-.091 22.45-.73 44.928.112 67.347 1.236 32.943-20.211 57.413-44.988 66.84-69.429 26.416-139.488 51.087-209.56 75.726-11.05 3.885-22.5 6.205-33.87 6.928-12.236.779-24.309-3.397-35.91-7.479-67.809-23.855-134.853-49.768-201.839-75.812-31.678-12.316-46.869-35.349-47.064-69.178-.124-21.485-.065-42.971-.128-64.456-.03-10.194-.598-10.609-10.224-6.415-17.122 7.458-32.824 17.349-47.789 28.443-11.106 8.232-21.18 17.56-29.454 28.696-8.594 11.567-10.009 23.733-2.711 36.517 2.273 3.981 4.508 7.984 6.79 11.96 34.261 59.683 82.14 104.06 145.801 131.279 56.302 24.072 114.536 39.794 175.645 45.326 40.319 3.649 80.452 2.996 120.458-2.288 34.416-4.546 68.325-11.851 101.361-22.798 44.176-14.638 86.894-32.156 124.052-62.905Z"/><path vectornator:layerName="path" d="M522.541 208.421c-24.547-.015-48.418.15-72.285-.119-18.286-.207-23.845-9.081-16.725-25.887 6.811-16.075 7.834-16.739 25.194-16.766 36.417-.057 72.836.101 109.247-.35 10.383-.128 16.922 3.743 20.668 13.283 1.41 3.59 1.651 8.346 7.558 8.719 1.687.107 3.512 3.024 3.487 5.741-2.26.958-4.009-1.974-6.196-.633-4.582 13.501-8.121 15.973-23.242 16.007-15.676.036-31.353.002-47.706.005ZM466.457 241.158c28.338-.255 56.033-.523 83.729-.63 12.262-.047 17.872 5.308 18.908 17.784.276 3.332.251 6.725-.017 10.06-.937 11.628-8.056 18.42-19.815 18.49-24.816.147-49.651-.499-74.446.238-18.383.546-25.058-11.648-23.447-28.394.86-8.94 4.988-15.499 15.088-17.548ZM639.812 278.222c-11.022 3.494-21.131 8.048-31.457 10.087-2.064-1.403-2.167-2.908-2.178-4.33-.113-14.242-.148-28.485-.265-42.727-.036-4.439 1.814-5.466 5.912-3.982 21.085 7.641 42.217 15.152 63.315 22.755 1.293.465 2.44 1.336 4.994 2.771-13.486 6.828-26.843 10.527-40.321 15.426ZM140.181 424.447c-3.839-9.284-3.168-17.537 3.433-24.638 5.738-6.171 13.135-7.863 21.159-6.024 9.199 2.108 15.559 10.43 15.826 20.008.231 8.269-6.547 17.717-14.669 20.45-10.221 3.437-19.017.226-25.749-9.796ZM874.307 395.974c10.153 7.206 13.367 17.856 8.682 27.349-4.973 10.076-15.842 14.444-27.065 10.877-9.48-3.012-14.794-14.127-12.258-25.639 2.173-9.867 12.806-16.787 23.257-14.976 2.347.406 4.589 1.408 7.384 2.389Z"/></g></svg>